# xmcd CD database file
#
# Track frame offsets:
#	150
#	12234
#	24751
#	35982
#	49401
#	61920
#	75792
#	87639
#	98110
#	110327
#	122918
#	135448
#	143981
#	156498
#	167967
#	180984
#	193840
#	204148
#	218161
#	232673
#	247802
#	260244
#	271349
#	283708
#	294775
#
# Disc length: 4099 seconds
#
# Revision: 4
# Processed by: cddbd v1.5.2PL0 Copyright (c) Steve Scherf et al.
# Submitted via: CDex 1.70
#
DISCID=5e100119
DTITLE=Various and track dates - Boogie Woogie Goodies CD2
DYEAR=2005
DGENRE=R&B
TTITLE0=Freddie Mitchell - Mr. Freddie's Boogie (1953)
TTITLE1=George Miller and his Mid-Driffs - Boogie's the Thing (1949)
TTITLE2=Roosevelt Sykes - Walkin' the Boogie (1952)
TTITLE3=Crown Prince Waterford - Strange Woman's Boogie (1947)
TTITLE4=Louis Jordan - Barnyard Boogie (1947)
TTITLE5=Ace Harris - M.F.T. Boogie (1945)
TTITLE6=Jimmy Liggins - Cadillac Boogie (1947)
TTITLE7=Mabel Scott - Boogie Woogie Santa Claus (1947)
TTITLE8=B. B. King - Boogie Woogie Woman (1952)
TTITLE9=Roy Milton - Milton's Boogie (1947)
TTITLE10=Jim Wynn - Rock Boogie (1945)
TTITLE11=Tiny Bradshaw - Bradshaw Boogie (1951)
TTITLE12=Smiley Lewis - Bee's Boogie (1951)
TTITLE13=Lee Brown - Bobbie Town Boogie (1946)
TTITLE14=T. J. Fowler - T. J. Boogie (1948)
TTITLE15=Jay McShann - Crown Prince Boogie (1947)
TTITLE16=Tommy Ridgley - Early Dawn Boogie (1949)
TTITLE17=Johnny Griffin - Chuck-a-Boogie (1948)
TTITLE18=Johnny Otis - Alimony Boogie (1947)
TTITLE19=Cab Calloway - Romin' House Boogie (1949)
TTITLE20=Big Bertha Henderson - Rock Bertha, Rock (1952)
TTITLE21=Sugar Chile Robinson - Numbers Boogie (1949)
TTITLE22=Joe Turner - Boogie Woogie Baby (1949)
TTITLE23=Joe Lutcher - Rockin' Boogie (1947)
TTITLE24=Amos Milburn - Square Dance Boogie (1949)
EXTD=Track dates provided. YEAR: 2005
EXTT0=
EXTT1=
EXTT2=
EXTT3=
EXTT4=
EXTT5=
EXTT6=
EXTT7=
EXTT8=
EXTT9=
EXTT10=
EXTT11=
EXTT12=
EXTT13=
EXTT14=
EXTT15=
EXTT16=
EXTT17=
EXTT18=
EXTT19=
EXTT20=
EXTT21=
EXTT22=
EXTT23=
EXTT24=
PLAYORDER=
